<?xml version="1.0" encoding="utf-8"?>
<!-- Generator: Adobe Illustrator 15.0.2, SVG Export Plug-In . SVG Version: 6.00 Build 0)  -->
<!DOCTYPE svg PUBLIC "-//W3C//DTD SVG 1.1//EN" "http://www.w3.org/Graphics/SVG/1.1/DTD/svg11.dtd">
<svg version="1.1" id="SVGs" xmlns="http://www.w3.org/2000/svg" xmlns:xlink="http://www.w3.org/1999/xlink" x="0px" y="0px"
	 width="107.692px" height="97.902px" viewBox="0 0 107.692 97.902" enable-background="new 0 0 107.692 97.902"
	 xml:space="preserve">
<g id="AdobeConnect">
	<linearGradient id="SVGID_1_" gradientUnits="userSpaceOnUse" x1="53.7129" y1="80.1328" x2="53.7129" y2="17.1328">
		<stop  offset="0" style="stop-color:#D7DED8"/>
		<stop  offset="0.1123" style="stop-color:#E1E6E2"/>
		<stop  offset="0.3687" style="stop-color:#F2F4F2"/>
		<stop  offset="0.6499" style="stop-color:#FCFCFC"/>
		<stop  offset="1" style="stop-color:#FFFFFF"/>
	</linearGradient>
	<rect x="21.713" y="17.133" fill="url(#SVGID_1_)" width="64" height="63"/>
	<linearGradient id="SVGID_2_" gradientUnits="userSpaceOnUse" x1="54.7129" y1="48.1328" x2="54.7129" y2="28.1328">
		<stop  offset="0" style="stop-color:#7E9989"/>
		<stop  offset="1" style="stop-color:#D7DED8"/>
	</linearGradient>
	<rect x="37.713" y="28.133" fill="url(#SVGID_2_)" width="34" height="20"/>
	<g>
		<g>
			<line fill="none" stroke="#7E9989" stroke-miterlimit="10" x1="46.713" y1="59.633" x2="28.713" y2="59.633"/>
		</g>
		<g>
			<path fill="#7E9F89" d="M28.713,60.133v-8.056c0-1.169,1.457-1.944,2.626-1.944h13.748c1.169,0,1.626,0.775,1.626,1.944v8.056"/>
			<path fill="none" stroke="#7E9F89" stroke-miterlimit="10" d="M29.213,60.133v-8.056c0-1.169,0.957-2.444,2.126-2.444h13.748
				c1.169,0,2.126,1.275,2.126,2.444v8.056"/>
		</g>
		
			<ellipse fill="#7E9F89" stroke="#D7DED8" stroke-width="0.6999" stroke-miterlimit="10" cx="38.4" cy="45.905" rx="4.205" ry="4.065"/>
		<rect x="31.713" y="52.133" fill="#D7DED8" width="1" height="8"/>
		<rect x="43.713" y="52.133" fill="#D7DED8" width="1" height="8"/>
	</g>
	<g>
		<g>
			<line fill="none" stroke="#7E9989" stroke-miterlimit="10" x1="79.713" y1="60.633" x2="61.713" y2="60.633"/>
		</g>
		<g>
			<path fill="#7E9289" d="M61.713,61.133v-8.056c0-1.169,1.457-1.944,2.626-1.944h13.748c1.169,0,1.626,0.775,1.626,1.944v8.056"/>
			<path fill="none" stroke="#7E9289" stroke-miterlimit="10" d="M62.213,61.133v-8.056c0-1.169,0.957-2.444,2.126-2.444h13.748
				c1.169,0,2.126,1.275,2.126,2.444v8.056"/>
		</g>
		
			<ellipse fill="#7E9289" stroke="#D7DED8" stroke-width="0.6999" stroke-miterlimit="10" cx="71.4" cy="46.905" rx="4.205" ry="4.065"/>
		<rect x="64.713" y="53.133" fill="#D7DED8" width="1" height="8"/>
		<rect x="76.713" y="53.133" fill="#D7DED8" width="1" height="8"/>
	</g>
	<g>
		<g>
			<line fill="none" stroke="#7E9989" stroke-miterlimit="10" x1="63.713" y1="66.633" x2="45.713" y2="66.633"/>
		</g>
		<g>
			<path fill="#7E9989" d="M45.713,67.133v-8.056c0-1.169,1.457-1.944,2.626-1.944h13.748c1.169,0,1.626,0.775,1.626,1.944v8.056"/>
			<path fill="none" stroke="#7E9989" stroke-miterlimit="10" d="M46.213,67.133v-8.056c0-1.169,0.957-2.444,2.126-2.444h13.748
				c1.169,0,2.126,1.275,2.126,2.444v8.056"/>
		</g>
		
			<ellipse fill="#7E9989" stroke="#D7DED8" stroke-width="0.6999" stroke-miterlimit="10" cx="55.4" cy="52.905" rx="4.205" ry="4.065"/>
		<rect x="48.713" y="59.133" fill="#D7DED8" width="1" height="8"/>
		<rect x="60.713" y="59.133" fill="#D7DED8" width="1" height="8"/>
	</g>
</g>
</svg>
